<?xml version="1.0" encoding="UTF-8"?>
<svg version="1.1" viewBox="0 0 2048 532" width="1280" height="1280" xmlns="http://www.w3.org/2000/svg">
<path transform="translate(677,166)" d="m0 0h66l5 4 2 8-1 13-3 5-7 2-58 1-16 3-9 4-7 6-2 5-1 41h194l5 2 3 6v15l-3 6-5 3h-194l1 38 4 7 10 6 10 3 21 2 148 1 5 3 2 5v16l-4 6-7 2h-148l-25-2-21-5-16-8-8-7-7-11-3-8-1-6v-120l2-9 5-10 9-10 11-7 13-5 20-4z" fill="#65C79B"/>
<path transform="translate(263,71)" d="m0 0h87l29 16 17 10 25 14 17 10v72l-1 3 1 4v65l-3 5-10 9-8 7-10 9-14 12-2 2h-145l-10-7-24-16v-2h179v-11h-34l-139 1-8-1v-25l3-1h142l36 1v-100l-17-10-27-15-24-14-22-12-24-14-13-8z" fill="#66C79B"/>
<path transform="translate(1697,165)" d="m0 0h16l10 4 9 10 15 22 28 40 12 17 42 60 12 17 16 23 1 2v8l-4 6-6 4-7 2h-9l-6-3-7-9-13-19-11-16-5-7v-2l-164 1-11 17-16 25-7 10-7 3h-9l-9-4-6-7-1-7 6-11 18-27 91-139 8-12 6-5zm7 37-14 22-11 17-26 40-6 9v2h120l-2-4-10-15-15-22-32-47z" fill="#FB9B3B"/>
<path transform="translate(969,166)" d="m0 0h55l5 5 1 4v14l-3 6-2 2-5 1-46 1-12 2-12 5-5 4-3 6-1 42h192l5 3 3 7v11l-3 8-2 2-4 1h-191v77l-2 6-5 5-9 2h-14l-7-3-3-3-2-12v-141l2-16 4-9 6-9 10-8 12-6 19-5z" fill="#65C79B"/>
<path transform="translate(1256,166)" d="m0 0h54l5 4 2 13-2 10-4 4-5 1-45 1-16 3-10 5-6 7-1 4-1 40h192l5 3 2 2 1 4v14l-3 6-5 3h-192v80l-3 5-4 3-8 2h-14l-8-3-3-4-1-3v-159l4-13 7-10 10-9 15-7 17-4z" fill="#65C79B"/>
<path transform="translate(236,69)" d="m0 0 5 1 16 9 21 12 41 24 23 13 41 24v52l-2 1-24-13-17-10-19-11-20-12-13-8-26-15-22-13-4 1-20 11-24 14-21 12-19 11-26 15-14 8-8 2 1-5 9-17 14-24 9-16 7-12 5-5 11-6 25-14 10-6 19-11 18-10z" fill="#FB9B3B"/>
<path transform="translate(205,335)" d="m0 0 9 2 28 16 52 30 13 8 11 6 28 16 5 2 22-13 24-14 43-25 26-15 13-7h4l-1 4-9 17-14 24-16 28-3 3-13 8-16 9-19 11-26 15-10 6-5 2-6-1-43-25-53-31-21-12-17-10-7-4v-49z" fill="#64C7B2"/>
<path transform="translate(238,133)" d="m0 0 6 1 23 13 17 10-4 5-24 14-21 12-24 14-26 15-25 15-19 11-1 153-4-1-14-24-15-26-10-18-3-3v-108l20-11 15-9 101-59z" fill="#E8A246"/>
<path transform="translate(192,223)" d="m0 0h3l1 167 27 15 21 12 25 14 21 12 18 10 15 9 1 5h-88l-8-5-26-15-23-13-24-14-6-3v-169l17-10z" fill="#65C79B"/>
<path transform="translate(1483,165)" d="m0 0h19l7 3 3 4 1 6v179l-1 15-5 6-8 2h-14l-8-3-3-4-1-5v-193l3-6 4-3z" fill="#65C79B"/>
<path transform="translate(1914,165)" d="m0 0h19l7 3 3 4 1 6v179l-1 15-5 6-8 2h-13l-9-3-3-4-1-5v-193l3-6 4-3z" fill="#F99B3C"/>
<path transform="translate(263,71)" d="m0 0h87l29 16 17 10 25 14 17 10v67h-1l-1-22-16 8-12 5-5 3-10 5h-1l-1-26v-13l-17-10-27-15-24-14-22-12-24-14-13-8z" fill="#FB9B3B"/>
<path transform="translate(205,335)" d="m0 0 9 2 28 16 52 30 13 8 11 6 24 14-4 5h-2l-1 4-6 3-4 5-7 4-7 2-2 4-8 1-2 1-21-12-17-10-26-15-24-14-7-4v-49z" fill="#65C79B"/>
<path transform="translate(205,202)" d="m0 0 1 3-26 15-28 17-11 6-1 153-4-1-14-24-15-26-10-18-3-3v-55l1-1 1-12 4-7 7-3 5-3 28-12h3v-2l17-8 4-3 5-2 3-2 9-3 8-4 14-4z" fill="#DBAA4F"/>
<path transform="translate(408,105)" d="m0 0 6 2 21 12 3 2v67h-1l-1-22-16 8-12 5-5 3-10 5h-1l-1-26v-13l-17-10-13-7 3-3 27-12 13-8z" fill="#AFB55F"/>
<path transform="translate(238,133)" d="m0 0 6 1 21 12v2l-5 3-3 4-5 2h-3l-1 3-7 3-3 3-7-1-7 6-8 2-10 4-3 3-16 6-7 3-14 7-12 5-16 6-14 2-4 3-10 3-5 4-1 2h-2l-3 12-2 7-1 8h-1l-1-32 20-11 15-9 101-59z" fill="#FB9B3B"/>
<path transform="translate(447,141)" d="m0 0 4 2 10 16 10 18 12 21 9 15 1 3-4 6-8 7-12 11-11 9-7 7-5 3v-82z" fill="#66C79B"/>
<path transform="translate(361,140)" d="m0 0 14 7 8 5v52l-2 1-24-13-17-10-19-11-6-4v-3l15-8 9-4 11-6z" fill="#C8AC52"/>
<path transform="translate(192,223)" d="m0 0h3v57l-30 12-9 4h-6l-1-13v-35l17-10z" fill="#AFB55F"/>
<path transform="translate(139,303)" d="m0 0h1v93l-4-1-14-24-15-26-10-18-2-1 1-7 12-2 13-5 3-2 8-2 3-1v-2z" fill="#66C79B"/>
<path transform="translate(323,120)" d="m0 0h5l19 11 14 8-1 3-30 15-13 7h-2l-1 3-26-16-8-5-2-4 6-4 13-6 10-2 10-6 3-2h3z" fill="#E8A245"/>
<path transform="translate(138,261)" d="m0 0h2v42l-2 2h-3v2l-5 3-7 2-9 4-10 3h-8l-1 5h-1v-37l1-2h2l1-3 13-6 17-9h2v-2z" fill="#AFB55F"/>
<path transform="translate(408,105)" d="m0 0 6 2 21 12 2 1v6l-20 7-14 7-11 5-2 2-27-15-2-2 16-8 13-5 10-7z" fill="#C8AC52"/>
<path transform="translate(377,87)" d="m0 0 5 2 18 10 8 5-2 4-14 8-4 3-20 8-6 3-6-2-16-9 1-5 6-4 6-3 9-6 6-3 5-2 2-6z" fill="#E8A245"/>
<path transform="translate(192,223)" d="m0 0h3v27l-10 4-9 3-18 8-5 3h-3v5h-1v-25l17-10z" fill="#CAAC52"/>
<path transform="translate(380,163)" d="m0 0 2 1 1 40-2 1-24-13-11-7 2-4 6-5 16-7 7-5z" fill="#AFB560"/>
<path transform="translate(136,245)" d="m0 0h4v16l-8 4h-2v2l-19 10-13 6h-1v-7l4-12 3-5 5-1v-2l15-7z" fill="#C8AC52"/>
<path transform="translate(211,247)" d="m0 0h41l10 1 1 2-18 9-9 4-22 10h-4v-25z" fill="#A2BA64"/>
<path transform="translate(348,133)" d="m0 0 6 2 7 4-1 3-30 15-13 7h-2l-1 3-13-8 1-4 7-3 9-5 10-3 12-7 8-2z" fill="#DAAA4D"/>
<path transform="translate(378,150)" d="m0 0 5 2v47h-1l-1-35-5 2-10 6-14 6-6 7-11-6-3-3 8-5 7-3 9-5 6-4 12-5z" fill="#C3B563"/>
<path transform="translate(432,152)" d="m0 0h5v13l-19 10-10 4-5 3-10 5h-1v-15l8-3 14-7 7-3z" fill="#A3BA62"/>
<path transform="translate(139,291)" d="m0 0h1v12l-2 2h-3v2l-5 3-7 2-9 4-10 3h-8l-1 4 1-11 6-7 16-7 8-3 3-2z" fill="#A3BA62"/>
<path transform="translate(408,105)" d="m0 0 6 2 10 6-1 2-9 3-17 8-17 6-6 5-5-2-8-4 3-3 27-12 13-8z" fill="#DAAA4D"/>
<path transform="translate(191,268)" d="m0 0h4v12l-30 12-9 4h-6v-11l2-2 13-5 8-4z" fill="#A3BA62"/>
<path transform="translate(437,121)" d="m0 0h1v67h-1l-1-52-10 4-14 7-20 9-1-11 8-4 5-3 7-3 8-4 16-5h2z" fill="#C6BA6E"/>
<path transform="translate(138,261)" d="m0 0h2v13l-12 5-18 7-8 6-5 9-2 23h-1v-37l1-2h2l1-3 13-6 17-9h2v-2z" fill="#C2B461"/>
<path transform="translate(192,238)" d="m0 0h3v12l-10 4-9 3-18 8-5 3h-3v-12l6-3 12-5 9-4 5-3z" fill="#BFB15A"/>
<path transform="translate(294,447)" d="m0 0 5 1 12 7 1 2-11 2h-14l-21-3 3-2-4-2 12-2h18z" fill="#64C7B2"/>
<path transform="translate(379,181)" d="m0 0h3l1 23-2 1-20-11v-3l5-4 8-3z" fill="#A2BA64"/>
<path transform="translate(211,247)" d="m0 0h41v1l-17 1-5 1-1 3-9 4-9 3-1-4v-8z" fill="#BABF75"/>
<path transform="translate(343,458)" d="m0 0h11l7 4-5 4-5 2-6-1-4-4-3-2v-2z" fill="#65C79C"/>
<path transform="translate(447,141)" d="m0 0 4 2 6 9v5l-5 3-4 1-1-1z" fill="#A6BB66"/>
<path transform="translate(381,193)" d="m0 0h1l1 11-2 1-9-5v-2z" fill="#68C79C"/>
<path transform="translate(619,237)" d="m0 0 7 1h2l-1 4-1 2-6 2-1 2-1-2 1-4z" fill="#64C8B3"/>
<path transform="translate(628,344)" d="m0 0h2l2 4 4 1v2l2 1h-7l-4-7z" fill="#64C8B3"/>
<path transform="translate(312,388)" d="m0 0 2 1z" fill="#66C79B"/>
<path transform="translate(333,400)" d="m0 0" fill="#66C79B"/>
<path transform="translate(328,397)" d="m0 0" fill="#66C79B"/>
<path transform="translate(327,396)" d="m0 0" fill="#66C79B"/>
<path transform="translate(319,391)" d="m0 0" fill="#66C79B"/>
<path transform="translate(304,383)" d="m0 0" fill="#66C79B"/>
</svg>
